<?xml version="1.0" standalone="no"?>
<!DOCTYPE svg PUBLIC "-//W3C//DTD SVG 20010904//EN"
 "http://www.w3.org/TR/2001/REC-SVG-20010904/DTD/svg10.dtd">
<svg version="1.0" xmlns="http://www.w3.org/2000/svg"
 width="24.000000pt" height="24.000000pt" viewBox="0 0 24.000000 24.000000"
 preserveAspectRatio="xMidYMid meet">
<metadata>
Created by potrace 1.16, written by Peter Selinger 2001-2019
</metadata>
<g transform="translate(0.000000,24.000000) scale(0.100000,-0.100000)"
fill="#000000" stroke="none">
<path d="M79 189 c-16 -16 -19 -29 -15 -52 3 -20 0 -39 -9 -51 -19 -26 -19
-56 0 -56 8 0 15 9 15 20 0 29 42 47 75 32 15 -7 25 -20 25 -32 0 -11 7 -20
15 -20 19 0 19 30 0 56 -9 12 -12 31 -9 51 7 36 -22 73 -56 73 -11 0 -29 -9
-41 -21z"/>
</g>
</svg>
