<?xml version="1.0" encoding="iso-8859-1"?>
<!-- Generator: Adobe Illustrator 19.0.0, SVG Export Plug-In . SVG Version: 6.00 Build 0)  -->
<svg viewBox="0 0 508.043 508.043" style="enable-background:new 0 0 508.043 508.043;" xml:space="preserve">
<g>
	<path d="M465.771,110.943h-18.5v-96.8c0-4.4-2.1-8.6-5.6-11.3s-8.1-3.5-12.4-2.3l-391.2,110.6c-21.3,2.2-38,20.2-38,42.1v312.4
			c0,23.4,19,42.4,42.3,42.4h423.3c23.3,0,42.3-19,42.3-42.3v-102.9v-106.6v-103C508.071,129.943,489.071,110.943,465.771,110.943z
			 M419.071,32.843v78.1h-276.4L419.071,32.843z M479.771,465.643c0.1,7.8-6.3,14.2-14,14.2h-423.4c-7.8,0-14.1-6.3-14.1-14.1
			v-115.5h25.2c7.8,0,14.1-6.3,14.1-14.1c0-7.8-6.3-14.1-14.1-14.1h-25.2v-25.1h58.5c7.8,0,14.1-6.3,14.1-14.1s-6.3-14.1-14.1-14.1
			h-58.5v-115.5c0-7.8,6.3-14.1,14.1-14.1h423.3c7.8,0,14.1,6.3,14.1,14.1v88.8h-66.6c-37.2,0-67.4,30.2-67.4,67.4
			c0,37.2,30.2,67.4,67.4,67.4h66.6V465.643z M479.871,348.743h-66.6c-21.6,0-39.2-17.6-39.2-39.2c0-21.6,17.6-39.2,39.2-39.2h66.6
			V348.743z"/>
	</g>
	<g>
		<path d="M409.071,295.343h-1.4c-7.8,0-14.1,6.3-14.1,14.1s6.3,14.1,14.1,14.1h1.4c7.8,0,14.1-6.3,14.1-14.1
			C423.171,301.643,416.871,295.343,409.071,295.343z"/>
	</g>
</svg>
